<svg class="icon" viewBox="0 0 1024 1024" xmlns="http://www.w3.org/2000/svg" width="200" height="200"><defs><style/></defs>    <path d="M285.44 174.506667L384 274.773333 341.333333 320 293.12 367.36 328.106667 426.666667a794.026667 794.026667 0 0 0 117.76 151.893333A810.666667 810.666667 0 0 0 597.333333 695.04l57.173334 34.986667L703.573333 682.666667l45.226667-45.226667 99.84 99.84-125.44 106.24-2.986667 2.56-2.56 2.56a23.893333 23.893333 0 0 1-10.24 0c-54.186667 0-170.666667-64-315.733333-206.933333-190.72-189.013333-224.426667-317.013333-215.893333-337.92l109.653333-129.28m0-85.333334a85.333333 85.333333 0 0 0-65.28 30.293334L114.346667 244.48C42.666667 319.146667 138.666667 512 331.093333 702.72c146.346667 146.346667 285.013333 232.106667 375.893334 232.106667a96 96 0 0 0 70.826666-26.453334l125.44-106.24 5.12-4.693333a85.333333 85.333333 0 0 0 0-120.746667L810.666667 577.28a85.333333 85.333333 0 0 0-120.746667 0l-45.226667 45.226667a721.92 721.92 0 0 1-136.533333-106.24A714.24 714.24 0 0 1 401.066667 380.16l45.226666-45.226667a85.333333 85.333333 0 0 0 0-120.746666L346.026667 114.346667 341.333333 109.226667a85.333333 85.333333 0 0 0-55.04-20.053334z"></path></svg>
